<svg xmlns="http://www.w3.org/2000/svg" xmlns:xlink="http://www.w3.org/1999/xlink" width="1920" zoomAndPan="magnify" viewBox="0 0 1440 809.999993" height="1080" preserveAspectRatio="xMidYMid meet" version="1.0"><defs><g/><clipPath id="203914fbfe"><path d="M 208 25 L 279.679688 25 L 279.679688 94 L 208 94 Z M 208 25 " clip-rule="nonzero"/></clipPath><clipPath id="77ae3a932d"><rect x="0" width="280" y="0" height="119"/></clipPath></defs><g transform="matrix(1, 0, 0, 1, 580, 486)"><g clip-path="url(#77ae3a932d)"><g fill="#133354" fill-opacity="1"><g transform="translate(0.761422, 93.753732)"><g><path d="M 29.96875 0.78125 C 24.863281 0.78125 19.929688 -0.0078125 15.171875 -1.59375 C 10.421875 -3.1875 6.691406 -5.242188 3.984375 -7.765625 L 7.5625 -15.328125 C 10.15625 -12.992188 13.472656 -11.097656 17.515625 -9.640625 C 21.554688 -8.191406 25.707031 -7.46875 29.96875 -7.46875 C 35.59375 -7.46875 39.796875 -8.421875 42.578125 -10.328125 C 45.359375 -12.234375 46.75 -14.769531 46.75 -17.9375 C 46.75 -20.269531 45.988281 -22.160156 44.46875 -23.609375 C 42.945312 -25.066406 41.070312 -26.179688 38.84375 -26.953125 C 36.613281 -27.734375 33.460938 -28.609375 29.390625 -29.578125 C 24.285156 -30.804688 20.160156 -32.035156 17.015625 -33.265625 C 13.878906 -34.492188 11.195312 -36.382812 8.96875 -38.9375 C 6.738281 -41.5 5.625 -44.945312 5.625 -49.28125 C 5.625 -52.894531 6.578125 -56.15625 8.484375 -59.0625 C 10.390625 -61.976562 13.28125 -64.304688 17.15625 -66.046875 C 21.039062 -67.796875 25.863281 -68.671875 31.625 -68.671875 C 35.632812 -68.671875 39.578125 -68.15625 43.453125 -67.125 C 47.335938 -66.09375 50.671875 -64.601562 53.453125 -62.65625 L 50.25 -54.90625 C 47.40625 -56.71875 44.363281 -58.09375 41.125 -59.03125 C 37.894531 -59.96875 34.726562 -60.4375 31.625 -60.4375 C 26.125 -60.4375 22 -59.429688 19.25 -57.421875 C 16.5 -55.421875 15.125 -52.832031 15.125 -49.65625 C 15.125 -47.332031 15.898438 -45.441406 17.453125 -43.984375 C 19.003906 -42.535156 20.925781 -41.40625 23.21875 -40.59375 C 25.519531 -39.78125 28.644531 -38.925781 32.59375 -38.03125 C 37.695312 -36.800781 41.800781 -35.570312 44.90625 -34.34375 C 48.007812 -33.113281 50.675781 -31.234375 52.90625 -28.703125 C 55.144531 -26.179688 56.265625 -22.789062 56.265625 -18.53125 C 56.265625 -14.96875 55.289062 -11.710938 53.34375 -8.765625 C 51.40625 -5.828125 48.460938 -3.5 44.515625 -1.78125 C 40.578125 -0.0703125 35.726562 0.78125 29.96875 0.78125 Z M 29.96875 0.78125 "/></g></g></g><g fill="#133354" fill-opacity="1"><g transform="translate(60.995957, 93.753732)"><g><path d="M 38.3125 0.78125 C 29.257812 0.78125 22.210938 -1.804688 17.171875 -6.984375 C 12.128906 -12.160156 9.609375 -19.597656 9.609375 -29.296875 L 9.609375 -67.90625 L 19.296875 -67.90625 L 19.296875 -29.6875 C 19.296875 -15.132812 25.664062 -7.859375 38.40625 -7.859375 C 44.613281 -7.859375 49.367188 -9.648438 52.671875 -13.234375 C 55.972656 -16.828125 57.625 -22.3125 57.625 -29.6875 L 57.625 -67.90625 L 67.03125 -67.90625 L 67.03125 -29.296875 C 67.03125 -19.523438 64.503906 -12.066406 59.453125 -6.921875 C 54.410156 -1.785156 47.363281 0.78125 38.3125 0.78125 Z M 38.3125 0.78125 "/></g></g></g><g fill="#133354" fill-opacity="1"><g transform="translate(137.719829, 93.753732)"><g><path d="M 55.578125 0 L 40.9375 -20.859375 C 39.125 -20.722656 37.703125 -20.65625 36.671875 -20.65625 L 19.890625 -20.65625 L 19.890625 0 L 10.1875 0 L 10.1875 -67.90625 L 36.671875 -67.90625 C 45.460938 -67.90625 52.378906 -65.800781 57.421875 -61.59375 C 62.460938 -57.394531 64.984375 -51.609375 64.984375 -44.234375 C 64.984375 -38.992188 63.691406 -34.53125 61.109375 -30.84375 C 58.523438 -27.15625 54.835938 -24.472656 50.046875 -22.796875 L 66.15625 0 Z M 36.375 -28.90625 C 42.519531 -28.90625 47.207031 -30.226562 50.4375 -32.875 C 53.675781 -35.53125 55.296875 -39.316406 55.296875 -44.234375 C 55.296875 -49.148438 53.675781 -52.914062 50.4375 -55.53125 C 47.207031 -58.144531 42.519531 -59.453125 36.375 -59.453125 L 19.890625 -59.453125 L 19.890625 -28.90625 Z M 36.375 -28.90625 "/></g></g></g><g clip-path="url(#203914fbfe)"><g fill="#133354" fill-opacity="1"><g transform="translate(208.23594, 93.753732)"><g><path d="M 53.453125 -16.96875 L 17.359375 -16.96875 L 9.890625 0 L -0.09375 0 L 30.65625 -67.90625 L 40.25 -67.90625 L 71.09375 0 L 60.921875 0 Z M 50.046875 -24.734375 L 35.40625 -58 L 20.765625 -24.734375 Z M 50.046875 -24.734375 "/></g></g></g></g></g></g><g fill="#133354" fill-opacity="1"><g transform="translate(515.613262, 445.716559)"><g><path d="M 174.296875 -85.046875 C 180.203125 -85.046875 185.726562 -83.945312 190.875 -81.75 C 196.019531 -79.550781 200.539062 -76.5 204.4375 -72.59375 C 208.34375 -68.695312 211.394531 -64.171875 213.59375 -59.015625 C 215.800781 -53.867188 216.90625 -48.347656 216.90625 -42.453125 L 216.90625 0 C 211 0 205.46875 -1.097656 200.3125 -3.296875 C 195.164062 -5.492188 190.644531 -8.539062 186.75 -12.4375 C 182.851562 -16.34375 179.800781 -20.867188 177.59375 -26.015625 C 175.394531 -31.171875 174.296875 -36.648438 174.296875 -42.453125 C 174.296875 -36.648438 173.195312 -31.171875 171 -26.015625 C 168.800781 -20.867188 165.75 -16.34375 161.84375 -12.4375 C 157.945312 -8.539062 153.445312 -5.492188 148.34375 -3.296875 C 143.25 -1.097656 137.75 0 131.84375 0 L 46.796875 0 C 40.898438 0 35.375 -1.097656 30.21875 -3.296875 C 25.070312 -5.492188 20.570312 -8.539062 16.71875 -12.4375 C 12.875 -16.34375 9.847656 -20.867188 7.640625 -26.015625 C 5.441406 -31.171875 4.34375 -36.648438 4.34375 -42.453125 L 131.84375 -42.453125 L 89.25 -85.046875 Z M 174.296875 -85.046875 "/></g></g></g><g fill="#133354" fill-opacity="1"><g transform="translate(736.863295, 445.716559)"><g><path d="M 4.34375 -42.453125 L 46.796875 -85.046875 L 46.796875 0 L 4.34375 42.453125 Z M 4.34375 -42.453125 "/></g></g></g><g fill="#133354" fill-opacity="1"><g transform="translate(856.113313, 433.866557)"><g><path d="M -34.953125 -85.046875 L -17.546875 -102.453125 L 0 -102.453125 C 0 -105.753906 0.773438 -108.726562 2.328125 -111.375 C 3.878906 -114.019531 5.976562 -116.117188 8.625 -117.671875 C 11.269531 -119.222656 14.195312 -120 17.40625 -120 C 20.601562 -120 23.523438 -119.222656 26.171875 -117.671875 C 28.828125 -116.117188 30.953125 -114.019531 32.546875 -111.375 C 34.148438 -108.726562 34.953125 -105.753906 34.953125 -102.453125 L 34.953125 -85.046875 Z M -34.953125 -85.046875 "/></g></g></g><g fill="#133354" fill-opacity="1"><g transform="translate(783.663312, 445.716559)"><g><path d="M 93.75 -42.453125 L 136.34375 -85.046875 L 136.34375 -42.453125 C 136.34375 -36.546875 135.242188 -31.019531 133.046875 -25.875 C 130.847656 -20.726562 127.796875 -16.226562 123.890625 -12.375 C 119.992188 -8.519531 115.46875 -5.492188 110.3125 -3.296875 C 105.164062 -1.097656 99.644531 0 93.75 0 L -1.34375 0 C -3.945312 0 -6.125 -0.875 -7.875 -2.625 C -9.625 -4.375 -10.5 -6.550781 -10.5 -9.15625 L -10.5 -33.296875 C -10.5 -35.898438 -9.625 -38.078125 -7.875 -39.828125 C -6.125 -41.578125 -3.945312 -42.453125 -1.34375 -42.453125 L 8.703125 -42.453125 L 51.296875 -85.046875 L 51.296875 -42.453125 L 93.75 -85.046875 Z M 93.75 -42.453125 "/></g></g></g></svg>