<svg xmlns="http://www.w3.org/2000/svg" viewBox="0 0 512 512">
  <!-- Left vertical stroke (tilted slightly left) -->
  <path d="M 168 24 L 200 24 C 208 24 214 30 214 38 L 214 310 C 214 318 208 324 200 324 L 168 324 C 160 324 148 318 148 310 L 130 38 C 129 30 135 24 143 24 Z" fill="#000"/>
  <!-- Right vertical stroke (straight) -->
  <path d="M 296 24 L 340 24 C 348 24 354 30 354 38 L 354 310 C 354 318 348 324 340 324 L 296 324 C 288 324 282 318 282 310 L 282 38 C 282 30 288 24 296 24 Z" fill="#000"/>
  <!-- Upper horizontal stroke -->
  <path d="M 48 280 L 420 256 C 432 255 442 264 442 276 L 442 304 C 442 316 432 327 420 328 L 48 352 C 36 353 26 344 26 332 L 26 308 C 26 296 36 281 48 280 Z" fill="#000"/>
  <!-- Lower horizontal stroke -->
  <path d="M 48 388 L 420 364 C 432 363 442 372 442 384 L 442 412 C 442 424 432 435 420 436 L 48 460 C 36 461 26 452 26 440 L 26 416 C 26 404 36 389 48 388 Z" fill="#000"/>
</svg>
